<?xml version="1.0" standalone="no"?>
<!DOCTYPE svg PUBLIC "-//W3C//DTD SVG 20010904//EN"
 "http://www.w3.org/TR/2001/REC-SVG-20010904/DTD/svg10.dtd">
<svg version="1.0" xmlns="http://www.w3.org/2000/svg"
 width="31.88" height="32" viewBox="0 0 256.000000 256.000000"
 preserveAspectRatio="xMidYMid meet">

<g transform="translate(0.000000,256.000000) scale(0.100000,-0.100000)"
fill="#000000" stroke="none">
<path d="M1143 2550 c-204 -23 -407 -98 -586 -217 -93 -62 -269 -238 -330
-330 -104 -157 -181 -349 -208 -518 -18 -114 -16 -322 5 -429 49 -253 161
-475 333 -657 84 -89 95 -95 130 -72 15 10 121 70 237 133 196 108 211 118
233 159 19 37 23 59 23 132 0 88 0 89 -45 158 -42 65 -105 204 -105 231 0 7
-13 27 -30 46 -36 42 -43 76 -38 202 2 86 6 105 26 131 22 30 23 39 21 199 -1
151 1 173 21 226 57 151 211 229 450 229 181 0 296 -38 382 -125 75 -77 88
-125 88 -329 0 -160 1 -171 23 -200 20 -28 22 -42 22 -158 0 -140 -9 -167 -66
-199 -16 -10 -29 -21 -29 -26 0 -19 -80 -178 -119 -234 -41 -60 -41 -62 -41
-151 0 -97 9 -133 43 -170 12 -13 126 -75 252 -138 127 -63 238 -122 248 -131
17 -15 24 -10 105 74 362 372 465 898 272 1380 -34 85 -94 192 -153 274 -59
82 -222 238 -304 293 -154 102 -351 182 -508 206 -103 15 -270 21 -352 11z"/>
</g>
</svg>
